<svg version="1.1" id="Layer_1" xmlns="http://www.w3.org/2000/svg" xmlns:xlink="http://www.w3.org/1999/xlink" x="0px" y="0px"
	 width="100%" viewBox="0 0 369 180" enable-background="new 0 0 369 180" xml:space="preserve">
<path fill="#FDFCFC" opacity="1.000000" stroke="none" 
	d="
M279.000000,181.000000 
	C186.000015,181.000000 93.500023,181.000000 1.000025,181.000000 
	C1.000017,121.000015 1.000017,61.000038 1.000008,1.000041 
	C123.999969,1.000027 246.999939,1.000027 369.999939,1.000014 
	C369.999939,60.999958 369.999939,120.999916 369.999969,180.999939 
	C339.833344,181.000000 309.666656,181.000000 279.000000,181.000000 
M184.215378,69.766998 
	C179.061356,69.877174 173.870010,69.630913 168.760468,70.165924 
	C154.726837,71.635330 147.305328,79.574196 146.734009,93.224388 
	C146.111389,108.100212 152.726074,117.165680 166.851288,119.504288 
	C172.837784,120.495438 179.083633,119.920158 185.844360,120.024559 
	C186.266159,120.002090 186.687943,119.979614 187.976547,120.245430 
	C190.735855,120.245430 193.495163,120.245430 196.901917,120.245430 
	C196.901917,113.276276 196.901917,106.740173 196.901917,100.370934 
	C201.355728,100.012085 205.231003,100.109688 208.917084,99.321960 
	C218.054062,97.369370 221.521194,92.400742 221.010391,82.827408 
	C220.624222,75.590042 215.482391,70.508728 207.043671,69.977081 
	C200.433533,69.560638 193.769791,69.995361 186.472855,70.006310 
	C186.034119,69.988983 185.595398,69.971657 184.215378,69.766998 
M79.990677,171.877609 
	C86.156303,171.877823 92.325523,171.750397 98.486275,171.923737 
	C102.500603,172.036682 104.334717,170.193268 104.572678,166.375473 
	C104.676338,164.712387 104.802856,163.050735 104.906097,161.387619 
	C105.474350,152.234177 108.063019,149.674271 117.408691,149.092789 
	C118.736893,149.010147 120.074150,149.069351 121.407219,149.069305 
	C143.903214,149.068481 166.399200,149.068680 188.895187,149.068649 
	C190.630905,149.068649 192.366638,149.068665 194.748184,149.068665 
	C192.874115,143.259140 191.257462,138.247620 189.599991,133.109528 
	C188.280502,133.045029 187.133118,132.940414 185.985703,132.939987 
	C161.490067,132.930557 136.994278,132.892654 112.499016,132.988571 
	C109.736176,132.999390 106.867706,133.430771 104.231705,134.254379 
	C73.066177,143.991867 42.379169,122.257454 41.571964,89.786880 
	C40.860958,61.186089 65.910568,38.309643 94.313431,41.802635 
	C100.201881,42.526794 105.996948,44.935871 111.840675,44.956253 
	C177.828110,45.186371 243.816635,45.101910 309.804871,45.101818 
	C311.578796,45.101814 313.352722,45.101818 315.697357,45.101818 
	C314.487610,41.371723 313.056763,38.304325 312.549469,35.091114 
	C311.719635,29.834921 308.894012,28.926411 303.966705,28.941185 
	C242.644867,29.125044 181.322250,29.068932 119.999840,29.054106 
	C108.612427,29.051353 105.521309,26.290276 104.851295,15.737458 
	C104.766830,14.407089 104.651787,13.078410 104.584473,11.747251 
	C104.390747,7.916230 102.513969,5.985311 98.552612,6.099405 
	C94.889641,6.204905 91.221161,6.136817 87.555237,6.118908 
	C73.815262,6.051788 74.152390,5.174481 73.836372,18.831020 
	C73.728333,23.499805 71.707527,25.251842 67.520752,27.598001 
	C58.327030,32.749924 51.527458,31.680037 45.107761,23.669125 
	C42.773731,20.756575 39.849983,21.349407 37.303078,23.851023 
	C34.687832,26.419760 32.044983,28.961630 29.475426,31.575432 
	C19.334614,41.890842 19.318649,40.279442 28.808727,50.712093 
	C31.903822,54.114601 31.437990,56.594574 30.394196,60.936821 
	C27.838230,71.569794 21.504414,74.654655 11.679775,73.906166 
	C7.887405,73.617233 6.337361,75.862434 6.414885,79.526634 
	C6.495934,83.357498 6.426949,87.191521 6.424209,91.024162 
	C6.413949,105.373619 5.469625,103.714645 19.298733,104.666138 
	C23.856295,104.979721 25.521938,106.652794 27.774487,110.678459 
	C32.890121,119.820923 31.922798,126.686935 23.758644,133.073746 
	C20.860397,135.341049 21.399637,138.298355 23.995029,140.852310 
	C26.845064,143.656830 29.635328,146.522049 32.452286,149.360184 
	C41.680565,158.657806 40.676105,158.655182 50.448475,149.664581 
	C54.062157,146.339981 56.692574,146.360962 61.546871,147.807800 
	C71.498970,150.774078 75.423828,156.214508 74.229309,166.255981 
	C73.866638,169.304672 75.383339,171.813019 79.990677,171.877609 
M61.788563,121.739952 
	C73.061325,129.332581 84.967064,133.628403 98.893227,130.281036 
	C108.505989,127.970467 113.257896,119.561501 108.135353,111.204956 
	C104.039772,104.523705 101.488701,97.582756 99.938782,90.009590 
	C98.669716,83.808739 93.601669,80.953484 87.854683,83.754440 
	C78.172951,88.473091 68.709999,93.716003 59.514420,99.327370 
	C54.325912,102.493530 53.336102,108.219086 56.181812,113.870178 
	C57.509258,116.506271 59.562973,118.776634 61.788563,121.739952 
M341.510925,112.014351 
	C344.450928,106.143723 347.390900,100.273094 350.330872,94.402466 
	C350.652771,94.461136 350.974640,94.519798 351.296509,94.578468 
	C351.296509,98.940224 351.296509,103.301979 351.296509,107.765373 
	C354.876892,107.765373 357.901733,107.765373 360.823669,107.765373 
	C360.823669,94.964653 360.823669,82.536209 360.823669,70.147232 
	C351.770142,68.946724 351.774231,68.948631 348.232727,76.570648 
	C343.640076,86.455002 339.040131,96.335953 333.986938,107.199570 
	C328.639954,96.269432 323.767059,86.329910 318.913879,76.380753 
	C315.206543,68.780556 315.158600,68.745972 306.200653,70.257607 
	C306.200653,86.784187 306.200653,103.349442 306.200653,120.036163 
	C309.480896,120.036163 312.518372,120.036163 316.106445,120.036163 
	C316.106445,110.985023 316.106445,102.344131 316.106445,92.245514 
	C320.504333,100.711174 324.305237,107.710236 327.773102,114.870575 
	C329.033447,117.472900 330.574615,118.180557 333.409912,118.559265 
	C338.404419,119.226364 339.670563,116.050224 341.510925,112.014351 
M242.849152,80.233002 
	C250.919922,84.297333 254.086792,92.255463 251.192062,101.198288 
	C248.842163,108.458031 242.274857,111.888481 232.836792,110.490028 
	C232.836792,107.139633 232.836792,103.717941 232.836792,100.168877 
	C229.472305,100.168877 226.550858,100.168877 223.406158,100.168877 
	C223.406158,106.925690 223.406158,113.463043 223.406158,120.990685 
	C230.512146,120.319557 237.346497,120.221588 243.945511,118.925476 
	C254.448685,116.862541 260.192505,109.893509 261.710907,99.332581 
	C263.560333,86.468513 258.239014,75.108589 247.572586,72.183937 
	C239.898407,70.079735 231.693054,69.912712 223.442413,68.845055 
	C223.442413,76.795715 223.442413,83.341263 223.442413,89.853622 
	C226.715027,89.853622 229.642212,89.853622 232.956757,89.853622 
	C232.956757,86.157524 232.956757,82.727798 232.956757,78.604927 
	C236.323196,79.120621 239.202515,79.561691 242.849152,80.233002 
M274.654205,118.188309 
	C277.564362,109.904884 280.474518,101.621452 283.384674,93.338028 
	C286.883575,100.244316 289.297943,106.939049 291.686737,113.642891 
	C294.424561,121.326027 295.323761,121.797112 303.823120,119.613083 
	C297.350342,102.995735 290.894257,86.421295 284.438171,69.846863 
	C284.044891,69.897461 283.651611,69.948067 283.258331,69.998672 
	C276.829987,86.603653 270.401611,103.208633 263.350616,121.421997 
	C268.001617,120.354393 271.161774,119.629013 274.654205,118.188309 
M127.350868,108.908539 
	C130.591476,102.577400 134.204025,96.403580 136.967300,89.870537 
	C139.688660,83.436607 135.792450,78.512077 128.895874,80.062744 
	C121.203880,81.792267 114.234978,85.587372 109.963448,92.732956 
	C107.179367,97.390289 109.363312,106.827354 113.773140,110.653740 
	C117.320114,113.731430 121.904762,113.311554 127.350868,108.908539 
M96.363098,66.741455 
	C97.129288,61.986916 98.386162,57.248772 98.545685,52.473965 
	C98.779976,45.460732 93.437134,42.415535 87.043388,45.440140 
	C78.876175,49.303688 73.260735,60.313412 74.944733,69.160957 
	C75.849579,73.914909 80.000946,78.587959 83.727051,79.046913 
	C87.859718,79.555946 92.356583,76.555565 94.583145,71.717773 
	C95.206657,70.363022 95.637497,68.919601 96.363098,66.741455 
M122.478081,70.839401 
	C123.267807,66.800606 124.681015,62.764465 124.698235,58.722382 
	C124.722855,52.943970 121.631142,51.108032 116.106140,52.685944 
	C105.016121,55.853184 98.926193,63.845623 98.840256,75.345703 
	C98.796936,81.144043 101.468185,83.862015 107.329079,83.957253 
	C115.840126,84.095551 119.554459,78.478874 122.478081,70.839401 
M52.243477,92.489136 
	C54.118748,92.923409 56.089081,93.961571 57.852287,93.683990 
	C64.348038,92.661407 70.490196,86.347832 71.496712,79.768776 
	C72.019684,76.350410 72.186714,72.832069 72.077179,69.372734 
	C71.895767,63.643017 66.825859,60.283604 61.647511,62.848484 
	C58.024307,64.643082 54.650978,67.302734 51.781960,70.188400 
	C44.628571,77.383293 44.754349,84.479645 52.243477,92.489136 
M325.433563,29.038578 
	C322.475739,29.038578 319.517914,29.038578 315.827087,29.038578 
	C317.526154,34.244938 318.921967,38.820496 320.572357,43.302311 
	C320.867218,44.103138 322.198761,44.995930 323.081085,45.027683 
	C327.801392,45.197544 332.531006,45.107807 337.812500,45.107807 
	C336.572083,41.163414 335.292358,38.068008 334.657257,34.845570 
	C333.711548,30.047012 331.108917,28.144537 325.433563,29.038578 
M198.160233,143.315216 
	C199.417603,145.231476 200.451782,148.559280 201.974091,148.799988 
	C206.588593,149.529648 211.392120,149.063980 216.941269,149.063980 
	C214.982498,143.112198 213.307312,138.022156 211.725250,133.214996 
	C205.840195,133.214996 200.615143,133.214996 194.978989,133.214996 
	C196.056473,136.578247 197.011475,139.559204 198.160233,143.315216 
z"/>
<path fill="#040404" opacity="1.000000" stroke="none" 
	d="
M79.543625,171.876251 
	C75.383339,171.813019 73.866638,169.304672 74.229309,166.255981 
	C75.423828,156.214508 71.498970,150.774078 61.546871,147.807800 
	C56.692574,146.360962 54.062157,146.339981 50.448475,149.664581 
	C40.676105,158.655182 41.680565,158.657806 32.452286,149.360184 
	C29.635328,146.522049 26.845064,143.656830 23.995029,140.852310 
	C21.399637,138.298355 20.860397,135.341049 23.758644,133.073746 
	C31.922798,126.686935 32.890121,119.820923 27.774487,110.678459 
	C25.521938,106.652794 23.856295,104.979721 19.298733,104.666138 
	C5.469625,103.714645 6.413949,105.373619 6.424209,91.024162 
	C6.426949,87.191521 6.495934,83.357498 6.414885,79.526634 
	C6.337361,75.862434 7.887405,73.617233 11.679775,73.906166 
	C21.504414,74.654655 27.838230,71.569794 30.394196,60.936821 
	C31.437990,56.594574 31.903822,54.114601 28.808727,50.712093 
	C19.318649,40.279442 19.334614,41.890842 29.475426,31.575432 
	C32.044983,28.961630 34.687832,26.419760 37.303078,23.851023 
	C39.849983,21.349407 42.773731,20.756575 45.107761,23.669125 
	C51.527458,31.680037 58.327030,32.749924 67.520752,27.598001 
	C71.707527,25.251842 73.728333,23.499805 73.836372,18.831020 
	C74.152390,5.174481 73.815262,6.051788 87.555237,6.118908 
	C91.221161,6.136817 94.889641,6.204905 98.552612,6.099405 
	C102.513969,5.985311 104.390747,7.916230 104.584473,11.747251 
	C104.651787,13.078410 104.766830,14.407089 104.851295,15.737458 
	C105.521309,26.290276 108.612427,29.051353 119.999840,29.054106 
	C181.322250,29.068932 242.644867,29.125044 303.966705,28.941185 
	C308.894012,28.926411 311.719635,29.834921 312.549469,35.091114 
	C313.056763,38.304325 314.487610,41.371723 315.697357,45.101818 
	C313.352722,45.101818 311.578796,45.101814 309.804871,45.101818 
	C243.816635,45.101910 177.828110,45.186371 111.840675,44.956253 
	C105.996948,44.935871 100.201881,42.526794 94.313431,41.802635 
	C65.910568,38.309643 40.860958,61.186089 41.571964,89.786880 
	C42.379169,122.257454 73.066177,143.991867 104.231705,134.254379 
	C106.867706,133.430771 109.736176,132.999390 112.499016,132.988571 
	C136.994278,132.892654 161.490067,132.930557 185.985703,132.939987 
	C187.133118,132.940414 188.280502,133.045029 189.599991,133.109528 
	C191.257462,138.247620 192.874115,143.259140 194.748184,149.068665 
	C192.366638,149.068665 190.630905,149.068649 188.895187,149.068649 
	C166.399200,149.068680 143.903214,149.068481 121.407219,149.069305 
	C120.074150,149.069351 118.736893,149.010147 117.408691,149.092789 
	C108.063019,149.674271 105.474350,152.234177 104.906097,161.387619 
	C104.802856,163.050735 104.676338,164.712387 104.572678,166.375473 
	C104.334717,170.193268 102.500603,172.036682 98.486275,171.923737 
	C92.325523,171.750397 86.156303,171.877823 79.543625,171.876251 
z"/>
<path fill="#AB1426" opacity="1.000000" stroke="none" 
	d="
M61.538033,121.476364 
	C59.562973,118.776634 57.509258,116.506271 56.181812,113.870178 
	C53.336102,108.219086 54.325912,102.493530 59.514420,99.327370 
	C68.709999,93.716003 78.172951,88.473091 87.854683,83.754440 
	C93.601669,80.953484 98.669716,83.808739 99.938782,90.009590 
	C101.488701,97.582756 104.039772,104.523705 108.135353,111.204956 
	C113.257896,119.561501 108.505989,127.970467 98.893227,130.281036 
	C84.967064,133.628403 73.061325,129.332581 61.538033,121.476364 
z"/>
<path fill="#090909" opacity="1.000000" stroke="none" 
	d="
M341.335571,112.345062 
	C339.670563,116.050224 338.404419,119.226364 333.409912,118.559265 
	C330.574615,118.180557 329.033447,117.472900 327.773102,114.870575 
	C324.305237,107.710236 320.504333,100.711174 316.106445,92.245514 
	C316.106445,102.344131 316.106445,110.985023 316.106445,120.036163 
	C312.518372,120.036163 309.480896,120.036163 306.200653,120.036163 
	C306.200653,103.349442 306.200653,86.784187 306.200653,70.257607 
	C315.158600,68.745972 315.206543,68.780556 318.913879,76.380753 
	C323.767059,86.329910 328.639954,96.269432 333.986938,107.199570 
	C339.040131,96.335953 343.640076,86.455002 348.232727,76.570648 
	C351.774231,68.948631 351.770142,68.946724 360.823669,70.147232 
	C360.823669,82.536209 360.823669,94.964653 360.823669,107.765373 
	C357.901733,107.765373 354.876892,107.765373 351.296509,107.765373 
	C351.296509,103.301979 351.296509,98.940224 351.296509,94.578468 
	C350.974640,94.519798 350.652771,94.461136 350.330872,94.402466 
	C347.390900,100.273094 344.450928,106.143723 341.335571,112.345062 
z"/>
<path fill="#090909" opacity="1.000000" stroke="none" 
	d="
M242.465500,80.117889 
	C239.202515,79.561691 236.323196,79.120621 232.956757,78.604927 
	C232.956757,82.727798 232.956757,86.157524 232.956757,89.853622 
	C229.642212,89.853622 226.715027,89.853622 223.442413,89.853622 
	C223.442413,83.341263 223.442413,76.795715 223.442413,68.845055 
	C231.693054,69.912712 239.898407,70.079735 247.572586,72.183937 
	C258.239014,75.108589 263.560333,86.468513 261.710907,99.332581 
	C260.192505,109.893509 254.448685,116.862541 243.945511,118.925476 
	C237.346497,120.221588 230.512146,120.319557 223.406158,120.990685 
	C223.406158,113.463043 223.406158,106.925690 223.406158,100.168877 
	C226.550858,100.168877 229.472305,100.168877 232.836792,100.168877 
	C232.836792,103.717941 232.836792,107.139633 232.836792,110.490028 
	C242.274857,111.888481 248.842163,108.458031 251.192062,101.198288 
	C254.086792,92.255463 250.919922,84.297333 242.465500,80.117889 
z"/>
<path fill="#F2F2F2" opacity="1.000000" stroke="none" 
	d="
M187.109741,119.957138 
	C186.687943,119.979614 186.266159,120.002090 185.540131,119.579033 
	C185.235901,116.559059 185.235901,113.984619 185.235901,110.874001 
	C179.521439,110.874001 174.505249,111.346710 169.611038,110.775093 
	C159.578171,109.603310 154.866501,102.047623 156.791031,91.074318 
	C158.312714,82.397926 166.153503,77.567879 175.893265,79.709885 
	C175.893265,82.997299 175.893265,86.408592 175.893265,89.724777 
	C179.269180,89.724777 182.149551,89.724777 185.156662,89.724777 
	C185.156662,82.890015 185.156662,76.422173 185.156662,69.954330 
	C185.595398,69.971657 186.034119,69.988983 186.801575,70.478928 
	C187.130295,73.536789 187.130295,76.122040 187.130295,79.016533 
	C193.646957,79.016533 199.462463,78.786331 205.250687,79.084946 
	C210.449753,79.353172 213.593246,84.068604 210.834732,87.481163 
	C209.412277,89.240891 206.384598,90.344505 203.983536,90.541527 
	C198.570312,90.985718 193.095642,90.681000 187.109741,90.681000 
	C187.109741,100.758324 187.109741,110.357735 187.109741,119.957138 
z"/>
<path fill="#080808" opacity="1.000000" stroke="none" 
	d="
M184.686020,69.860664 
	C185.156662,76.422173 185.156662,82.890015 185.156662,89.724777 
	C182.149551,89.724777 179.269180,89.724777 175.893265,89.724777 
	C175.893265,86.408592 175.893265,82.997299 175.893265,79.709885 
	C166.153503,77.567879 158.312714,82.397926 156.791031,91.074318 
	C154.866501,102.047623 159.578171,109.603310 169.611038,110.775093 
	C174.505249,111.346710 179.521439,110.874001 185.235901,110.874001 
	C185.235901,113.984619 185.235901,116.559059 185.223755,119.595154 
	C179.083633,119.920158 172.837784,120.495438 166.851288,119.504288 
	C152.726074,117.165680 146.111389,108.100212 146.734009,93.224388 
	C147.305328,79.574196 154.726837,71.635330 168.760468,70.165924 
	C173.870010,69.630913 179.061356,69.877174 184.686020,69.860664 
z"/>
<path fill="#0A0A0A" opacity="1.000000" stroke="none" 
	d="
M187.543152,120.101288 
	C187.109741,110.357735 187.109741,100.758324 187.109741,90.681000 
	C193.095642,90.681000 198.570312,90.985718 203.983536,90.541527 
	C206.384598,90.344505 209.412277,89.240891 210.834732,87.481163 
	C213.593246,84.068604 210.449753,79.353172 205.250687,79.084946 
	C199.462463,78.786331 193.646957,79.016533 187.130295,79.016533 
	C187.130295,76.122040 187.130295,73.536789 187.130066,70.501724 
	C193.769791,69.995361 200.433533,69.560638 207.043671,69.977081 
	C215.482391,70.508728 220.624222,75.590042 221.010391,82.827408 
	C221.521194,92.400742 218.054062,97.369370 208.917084,99.321960 
	C205.231003,100.109688 201.355728,100.012085 196.901917,100.370934 
	C196.901917,106.740173 196.901917,113.276276 196.901917,120.245430 
	C193.495163,120.245430 190.735855,120.245430 187.543152,120.101288 
z"/>
<path fill="#0A0A0A" opacity="1.000000" stroke="none" 
	d="
M274.488037,118.545975 
	C271.161774,119.629013 268.001617,120.354393 263.350616,121.421997 
	C270.401611,103.208633 276.829987,86.603653 283.258331,69.998672 
	C283.651611,69.948067 284.044891,69.897461 284.438171,69.846863 
	C290.894257,86.421295 297.350342,102.995735 303.823120,119.613083 
	C295.323761,121.797112 294.424561,121.326027 291.686737,113.642891 
	C289.297943,106.939049 286.883575,100.244316 283.384674,93.338028 
	C280.474518,101.621452 277.564362,109.904884 274.488037,118.545975 
z"/>
<path fill="#AC1729" opacity="1.000000" stroke="none" 
	d="
M127.102524,109.182137 
	C121.904762,113.311554 117.320114,113.731430 113.773140,110.653740 
	C109.363312,106.827354 107.179367,97.390289 109.963448,92.732956 
	C114.234978,85.587372 121.203880,81.792267 128.895874,80.062744 
	C135.792450,78.512077 139.688660,83.436607 136.967300,89.870537 
	C134.204025,96.403580 130.591476,102.577400 127.102524,109.182137 
z"/>
<path fill="#AC1729" opacity="1.000000" stroke="none" 
	d="
M96.259911,67.129150 
	C95.637497,68.919601 95.206657,70.363022 94.583145,71.717773 
	C92.356583,76.555565 87.859718,79.555946 83.727051,79.046913 
	C80.000946,78.587959 75.849579,73.914909 74.944733,69.160957 
	C73.260735,60.313412 78.876175,49.303688 87.043388,45.440140 
	C93.437134,42.415535 98.779976,45.460732 98.545685,52.473965 
	C98.386162,57.248772 97.129288,61.986916 96.259911,67.129150 
z"/>
<path fill="#AC172A" opacity="1.000000" stroke="none" 
	d="
M122.326759,71.198898 
	C119.554459,78.478874 115.840126,84.095551 107.329079,83.957253 
	C101.468185,83.862015 98.796936,81.144043 98.840256,75.345703 
	C98.926193,63.845623 105.016121,55.853184 116.106140,52.685944 
	C121.631142,51.108032 124.722855,52.943970 124.698235,58.722382 
	C124.681015,62.764465 123.267807,66.800606 122.326759,71.198898 
z"/>
<path fill="#AC1729" opacity="1.000000" stroke="none" 
	d="
M51.953918,92.245010 
	C44.754349,84.479645 44.628571,77.383293 51.781960,70.188400 
	C54.650978,67.302734 58.024307,64.643082 61.647511,62.848484 
	C66.825859,60.283604 71.895767,63.643017 72.077179,69.372734 
	C72.186714,72.832069 72.019684,76.350410 71.496712,79.768776 
	C70.490196,86.347832 64.348038,92.661407 57.852287,93.683990 
	C56.089081,93.961571 54.118748,92.923409 51.953918,92.245010 
z"/>
<path fill="#AD182A" opacity="1.000000" stroke="none" 
	d="
M325.897491,29.038584 
	C331.108917,28.144537 333.711548,30.047012 334.657257,34.845570 
	C335.292358,38.068008 336.572083,41.163414 337.812500,45.107807 
	C332.531006,45.107807 327.801392,45.197544 323.081085,45.027683 
	C322.198761,44.995930 320.867218,44.103138 320.572357,43.302311 
	C318.921967,38.820496 317.526154,34.244938 315.827087,29.038578 
	C319.517914,29.038578 322.475739,29.038578 325.897491,29.038584 
z"/>
<path fill="#AC1729" opacity="1.000000" stroke="none" 
	d="
M198.063354,142.927704 
	C197.011475,139.559204 196.056473,136.578247 194.978989,133.214996 
	C200.615143,133.214996 205.840195,133.214996 211.725250,133.214996 
	C213.307312,138.022156 214.982498,143.112198 216.941269,149.063980 
	C211.392120,149.063980 206.588593,149.529648 201.974091,148.799988 
	C200.451782,148.559280 199.417603,145.231476 198.063354,142.927704 
z"/>
</svg>